<?xml version="1.0" encoding="utf-8"?>
<!-- Generator: Adobe Illustrator 16.0.0, SVG Export Plug-In . SVG Version: 6.00 Build 0)  -->
<!DOCTYPE svg PUBLIC "-//W3C//DTD SVG 1.1//EN" "http://www.w3.org/Graphics/SVG/1.1/DTD/svg11.dtd">
<svg version="1.1" id="图层_1" xmlns="http://www.w3.org/2000/svg" xmlns:xlink="http://www.w3.org/1999/xlink" x="0px" y="0px"
	 width="64px" height="64px" viewBox="0 0 64 64" enable-background="new 0 0 64 64" xml:space="preserve">
<g>
	<path fill="#8C8C8C" d="M53.271,9.006c3.605,0,6.539,2.934,6.539,6.539V48.74c0,3.605-2.934,6.539-6.539,6.539H10.35
		c-3.606,0-6.54-2.934-6.54-6.539V15.545c0-3.605,2.934-6.539,6.54-6.539H53.271 M53.271,7.006H10.35
		c-4.716,0-8.54,3.823-8.54,8.539V48.74c0,4.717,3.823,8.539,8.54,8.539h42.921c4.717,0,8.539-3.823,8.539-8.539V15.545
		C61.811,10.83,57.988,7.006,53.271,7.006L53.271,7.006z"/>
</g>
<circle fill="#8C8C8C" cx="31.244" cy="21.594" r="3.814"/>
<polyline fill="none" stroke="#8C8C8C" stroke-width="2" stroke-linecap="round" stroke-linejoin="round" stroke-miterlimit="10" points="
	3.358,42.403 17.021,24.536 52.204,52.992 "/>
<polyline fill="none" stroke="#8C8C8C" stroke-width="2" stroke-linecap="round" stroke-linejoin="round" stroke-miterlimit="10" points="
	36.426,39.08 45.484,27.233 60.871,39.678 "/>
</svg>
