<?xml version="1.0" encoding="utf-8"?>
<!-- Generator: Adobe Illustrator 16.0.0, SVG Export Plug-In . SVG Version: 6.00 Build 0)  -->
<!DOCTYPE svg PUBLIC "-//W3C//DTD SVG 1.1//EN" "http://www.w3.org/Graphics/SVG/1.1/DTD/svg11.dtd">
<svg version="1.1" id="图层_1" xmlns="http://www.w3.org/2000/svg" xmlns:xlink="http://www.w3.org/1999/xlink" x="0px" y="0px"
	 width="64px" height="64px" viewBox="0 0 64 64" enable-background="new 0 0 64 64" xml:space="preserve">
<g>
	<path fill="#8C8C8C" d="M55.408,4.012v57H14.82c-3.489,0-6.327-2.839-6.327-6.328V10.339c0-3.489,2.838-6.328,6.327-6.328h40.588
		 M57.408,2.012H14.82c-4.599,0-8.327,3.729-8.327,8.328v44.344c0,4.602,3.729,8.328,8.327,8.328h42.588V2.012L57.408,2.012z"/>
</g>
<g>
	<path fill="#8C8C8C" d="M55.408,52.643v7.945H13.212c-2.19,0-3.973-1.781-3.973-3.973c0-2.192,1.782-3.973,3.973-3.973H55.408
		 M57.408,50.643H13.212c-3.299,0-5.973,2.674-5.973,5.975c0,3.299,2.674,5.973,5.973,5.973h44.196V50.643L57.408,50.643z"/>
</g>
<g>
	<path fill="#8C8C8C" d="M24.525,4.012v16.004l-1.695-1.13l-1.109-0.74l-1.109,0.74l-1.694,1.13V4.012H24.525 M26.525,2.012h-9.608
		v21.741l4.804-3.203l4.805,3.203L26.525,2.012L26.525,2.012z"/>
</g>
</svg>
