<?xml version="1.0" encoding="utf-8"?>
<!-- Generator: Adobe Illustrator 16.0.0, SVG Export Plug-In . SVG Version: 6.00 Build 0)  -->
<!DOCTYPE svg PUBLIC "-//W3C//DTD SVG 1.1//EN" "http://www.w3.org/Graphics/SVG/1.1/DTD/svg11.dtd">
<svg version="1.1" id="图层_1" xmlns="http://www.w3.org/2000/svg" xmlns:xlink="http://www.w3.org/1999/xlink" x="0px" y="0px"
	 width="64px" height="64px" viewBox="0 0 64 64" enable-background="new 0 0 64 64" xml:space="preserve">
<g>
	<g>
		<path fill="#8C8C8C" d="M35.689,2.638c0.736,0,1.336,0.599,1.336,1.335v55.329c0,0.736-0.6,1.336-1.336,1.336H6.082
			c-0.736,0-1.335-0.6-1.335-1.336V3.974c0-0.736,0.599-1.335,1.335-1.335H35.689 M35.689,0.638H6.082
			c-1.842,0-3.335,1.494-3.335,3.335v55.329c0,1.842,1.493,3.336,3.335,3.336h29.608c1.842,0,3.336-1.494,3.336-3.336V3.974
			C39.025,2.132,37.531,0.638,35.689,0.638L35.689,0.638z"/>
	</g>
	<path fill="none" stroke="#8C8C8C" stroke-width="2" stroke-linecap="round" stroke-linejoin="round" stroke-miterlimit="10" d="
		M39.025,10.645h18.49c1.842,0,3.336,1.494,3.336,3.335v44.211c0,1.842-1.494,3.335-3.336,3.335H32.354"/>
	
		<line fill="none" stroke="#8C8C8C" stroke-width="2" stroke-linecap="round" stroke-linejoin="round" stroke-miterlimit="10" x1="12.208" y1="16.655" x2="29.053" y2="16.655"/>
	
		<line fill="none" stroke="#8C8C8C" stroke-width="2" stroke-linecap="round" stroke-linejoin="round" stroke-miterlimit="10" x1="12.208" y1="30.908" x2="29.053" y2="30.908"/>
	
		<line fill="none" stroke="#8C8C8C" stroke-width="2" stroke-linecap="round" stroke-linejoin="round" stroke-miterlimit="10" x1="12.208" y1="45.16" x2="29.053" y2="45.16"/>
	
		<line fill="none" stroke="#8C8C8C" stroke-width="2" stroke-linecap="round" stroke-linejoin="round" stroke-miterlimit="10" x1="44.479" y1="30.908" x2="53.021" y2="30.908"/>
	
		<line fill="none" stroke="#8C8C8C" stroke-width="2" stroke-linecap="round" stroke-linejoin="round" stroke-miterlimit="10" x1="44.479" y1="45.16" x2="53.021" y2="45.16"/>
</g>
</svg>
