<?xml version="1.0" encoding="utf-8"?>
<!-- Generator: Adobe Illustrator 16.0.0, SVG Export Plug-In . SVG Version: 6.00 Build 0)  -->
<!DOCTYPE svg PUBLIC "-//W3C//DTD SVG 1.1//EN" "http://www.w3.org/Graphics/SVG/1.1/DTD/svg11.dtd">
<svg version="1.1" id="图层_1" xmlns="http://www.w3.org/2000/svg" xmlns:xlink="http://www.w3.org/1999/xlink" x="0px" y="0px"
	 width="64px" height="64px" viewBox="0 0 64 64" enable-background="new 0 0 64 64" xml:space="preserve">
<g>
	<path fill="#8C8C8C" d="M50.391,28.521c2.92,0,5.295,2.375,5.295,5.295v20.939c0,2.92-2.375,5.295-5.295,5.295H13.72
		c-2.92,0-5.295-2.375-5.295-5.295l0-20.94c0-2.919,2.375-5.294,5.295-5.294H50.391 M50.391,26.521H13.72
		c-4.029,0-7.295,3.266-7.295,7.294l0,20.94c0,4.029,3.266,7.295,7.295,7.295h36.671c4.028,0,7.295-3.266,7.295-7.295V33.815
		C57.686,29.786,54.419,26.521,50.391,26.521L50.391,26.521z"/>
</g>
<path fill="none" stroke="#8C8C8C" stroke-width="2" stroke-linecap="round" stroke-linejoin="round" stroke-miterlimit="10" d="
	M16.057,26.521v-7.474c0-8.834,7.163-15.997,15.998-15.997l0,0c8.835,0,15.998,7.163,15.998,15.997v7.474"/>
<path fill="#8C8C8C" d="M36.723,39.624c0-2.577-2.09-4.667-4.668-4.667c-2.578,0-4.667,2.09-4.667,4.667
	c0,1.896,1.131,3.522,2.752,4.253v7.276c0,1.057,0.857,1.914,1.915,1.914c1.058,0,1.915-0.857,1.915-1.914v-7.276
	C35.592,43.146,36.723,41.52,36.723,39.624z"/>
</svg>
