<?xml version="1.0" encoding="utf-8"?>
<!-- Generator: Adobe Illustrator 16.0.0, SVG Export Plug-In . SVG Version: 6.00 Build 0)  -->
<!DOCTYPE svg PUBLIC "-//W3C//DTD SVG 1.1//EN" "http://www.w3.org/Graphics/SVG/1.1/DTD/svg11.dtd">
<svg version="1.1" id="图层_1" xmlns="http://www.w3.org/2000/svg" xmlns:xlink="http://www.w3.org/1999/xlink" x="0px" y="0px"
	 width="64px" height="64px" viewBox="0 0 64 64" enable-background="new 0 0 64 64" xml:space="preserve">
<path fill="none" stroke="#8C8C8C" stroke-width="2" stroke-linecap="round" stroke-linejoin="round" stroke-miterlimit="10" d="
	M41.119,7.417c10.06,3.59,17.258,13.201,17.258,24.493c0,14.358-11.641,26-26,26s-26-11.642-26-26
	c0-11.341,7.261-20.986,17.389-24.54"/>
<path fill="#8C8C8C" d="M35.063,30.088c0,1.479-1.201,2.684-2.686,2.684l0,0c-1.484,0-2.686-1.204-2.686-2.684V8.595
	c0-1.481,1.202-2.685,2.686-2.685l0,0c1.484,0,2.686,1.203,2.686,2.685V30.088z"/>
</svg>
